<?xml version="1.0" standalone="no"?>
<!DOCTYPE svg PUBLIC "-//W3C//DTD SVG 20010904//EN"
 "http://www.w3.org/TR/2001/REC-SVG-20010904/DTD/svg10.dtd">
<svg version="1.0" xmlns="http://www.w3.org/2000/svg"
 width="960.000000pt" height="466.000000pt" viewBox="0 0 960.000000 466.000000"
 preserveAspectRatio="xMidYMid meet">

<g transform="translate(0.000000,466.000000) scale(0.100000,-0.100000)"
fill="#000000" stroke="none">
<path d="M4672 3450 c-134 -19 -257 -66 -379 -146 -216 -140 -361 -363 -404
-619 l-13 -75 -217 0 -218 0 -5 -32 c-3 -18 -26 -431 -51 -918 -25 -487 -48
-926 -52 -976 l-6 -91 -116 -7 c-542 -33 -1391 -122 -1419 -150 -39 -38 3
-113 57 -101 146 30 1452 147 1468 132 3 -3 0 -93 -6 -200 -6 -107 -11 -211
-11 -231 l0 -36 1501 0 1502 0 -6 73 c-4 39 -10 145 -13 235 l-7 162 54 0
c135 0 860 -63 1215 -105 198 -24 218 -25 240 -10 16 10 24 25 24 44 0 53 -16
58 -296 90 -408 47 -1037 101 -1176 101 -31 0 -60 5 -64 11 -5 8 -109 1845
-114 1997 0 9 -51 12 -220 12 l-219 0 -6 38 c-35 214 -112 376 -249 520 -170
179 -384 276 -631 286 -55 3 -128 1 -163 -4z m327 -180 c180 -50 336 -164 436
-319 64 -100 89 -165 121 -318 l4 -23 -760 0 c-525 0 -760 3 -760 11 0 36 37
165 66 227 87 190 233 327 425 399 47 18 115 37 150 42 88 14 230 5 318 -19z
m-1121 -937 c2 -103 4 -114 24 -124 27 -14 117 -6 129 12 5 8 9 62 9 122 l0
107 760 0 760 0 0 -115 c0 -130 3 -135 80 -135 77 0 80 5 80 135 l0 115 145 0
145 0 0 -23 c0 -13 27 -526 60 -1141 33 -615 60 -1120 60 -1122 0 -2 -598 -4
-1330 -4 l-1330 0 0 31 c0 44 108 2074 116 2177 l6 83 141 -3 142 -3 3 -112z"/>
<path d="M4232 1235 c-47 -20 -68 -72 -48 -119 17 -40 42 -56 86 -56 44 0 69
16 86 56 20 48 -1 99 -50 119 -41 18 -33 18 -74 0z"/>
<path d="M5294 1240 c-31 -12 -64 -59 -64 -91 0 -15 12 -41 26 -58 22 -26 33
-31 70 -31 57 0 94 35 94 87 0 47 -16 72 -55 89 -39 16 -42 16 -71 4z"/>
<path d="M4920 890 c-143 -30 -276 -165 -197 -201 18 -8 76 -3 241 21 120 17
224 34 232 37 8 3 17 16 20 30 18 71 -163 140 -296 113z"/>
</g>
</svg>
